<?xml version="1.0" encoding="UTF-8"?>
<svg width="400px" height="400px" viewBox="0 0 400 400" version="1.1" xmlns="http://www.w3.org/2000/svg" xmlns:xlink="http://www.w3.org/1999/xlink">
    <title>Artboard@1x</title>
    <g id="Artboard" stroke="none" stroke-width="1" fill="none" fill-rule="evenodd">
        <path d="M310.168508,239.026519 C319.192449,252.654512 323.70442,269.597422 323.70442,289.855249 C323.70442,306.429834 320.665746,321.531123 314.588398,335.159116 C308.51105,348.787109 299.763352,360.389319 288.345304,369.965746 C276.927256,379.542173 262.930939,386.908656 246.356354,392.065193 C229.781768,397.221731 210.997238,399.8 190.002762,399.8 C166.798343,399.8 145.988029,397.037569 127.571823,391.512707 C109.155617,385.987845 96.0801105,380.094659 88.3453039,373.833149 C88.713628,367.571639 89.3581952,360.020994 90.2790055,351.181215 C91.1998158,342.341436 92.3047882,333.225414 93.5939227,323.833149 C94.8830571,314.440884 96.2642726,305.324862 97.7375691,296.485083 C99.2108656,287.645304 100.684162,280.094659 102.157459,273.833149 L116.522099,273.833149 L139.174033,355.048619 C143.593923,359.468508 149.302947,363.243831 156.301105,366.374586 C163.299263,369.505341 173.796501,371.070718 187.792818,371.070718 C199.57919,371.070718 210.628913,369.505341 220.941989,366.374586 C231.255064,363.243831 240.186924,358.639779 247.737569,352.562431 C255.288214,346.485083 261.273481,339.1186 265.69337,330.462983 C270.11326,321.807366 272.323204,311.954696 272.323204,300.904972 C272.323204,286.172007 267.811234,273.833149 258.787293,263.888398 C249.763352,253.943646 238.529466,245.103867 225.085635,237.369061 C213.027071,230.431257 200.005435,223.641618 186.020727,217.000143 L291.967536,216.999625 C298.822377,223.711643 304.889368,231.053941 310.168508,239.026519 Z M204.91989,-0.2 C227.387661,-0.2 247.921731,1.54953959 266.522099,5.04861878 C285.122468,8.54769797 299.763352,12.8755064 310.444751,18.0320442 C310.444751,24.2935543 309.984346,31.5679558 309.063536,39.8552486 C308.142726,48.1425414 307.037753,56.7060773 305.748619,65.5458564 C304.459484,74.3856354 303.078269,82.9491713 301.604972,91.2364641 C300.131676,99.5237569 298.658379,106.798158 297.185083,113.059669 L282.820442,113.059669 L260.720994,37.3690608 C254.09116,34.4224678 245.711786,32.212523 235.582873,30.7392265 C225.453959,29.26593 214.680479,28.5292818 203.262431,28.5292818 C184.477901,28.5292818 169.376611,33.7779006 157.958564,44.2751381 C146.540516,54.7723757 140.831492,69.4132597 140.831492,88.1977901 C140.831492,103.299079 145.343462,116.006262 154.367403,126.319337 C163.391344,136.632413 174.717311,145.840516 188.345304,153.943646 C201.973297,162.046777 216.61418,169.873665 232.267956,177.424309 C235.334716,178.90357 238.3626,180.428776 241.351608,181.999926 L129.264316,182.000994 C119.291117,173.285464 110.715903,163.288448 103.538674,152.009945 C94.514733,137.829466 90.0027624,120.057827 90.0027624,98.6950276 C90.0027624,83.2254144 92.7651934,69.4132597 98.2900552,57.2585635 C103.814917,45.1038674 111.641805,34.7907919 121.770718,26.319337 C131.899632,17.8478821 143.962247,11.3101289 157.958564,6.70607735 C171.95488,2.10202578 187.608656,-0.2 204.91989,-0.2 Z" id="Combined-Shape" fill="#000000" fill-rule="nonzero"></path>
        <path d="M310.168508,239.026519 C319.192449,252.654512 323.70442,269.597422 323.70442,289.855249 C323.70442,306.429834 320.665746,321.531123 314.588398,335.159116 C308.51105,348.787109 299.763352,360.389319 288.345304,369.965746 C276.927256,379.542173 262.930939,386.908656 246.356354,392.065193 C229.781768,397.221731 210.997238,399.8 190.002762,399.8 C166.798343,399.8 145.988029,397.037569 127.571823,391.512707 L126.712475,391.25346 L126.712475,391.25346 L125.017249,390.733346 L125.017249,390.733346 L123.353316,390.211073 C123.078602,390.123848 122.805191,390.036533 122.533084,389.949128 L120.916091,389.423619 C120.6492,389.335854 120.383613,389.247999 120.119329,389.160055 L118.549276,388.631308 C118.290208,388.543004 118.032444,388.45461 117.775984,388.366126 L116.25287,387.834142 L116.25287,387.834142 L114.76105,387.3 C114.515021,387.210797 114.270296,387.121503 114.026874,387.03212 L112.581993,386.494741 C110.676348,385.776796 108.85415,385.053097 107.115402,384.323643 L105.826987,383.775473 L105.826987,383.775473 L104.569865,383.225145 C102.914564,382.489935 101.342712,381.748971 99.8543087,381.002251 L98.7536527,380.441132 C94.5944496,378.28604 91.125,376.083379 88.3453039,373.833149 L88.4317009,372.420482 L88.4317009,372.420482 L88.5783485,370.221905 L88.5783485,370.221905 L88.6874815,368.703137 L88.6874815,368.703137 L88.805709,367.141928 L88.805709,367.141928 L89.0001023,364.720537 L89.0001023,364.720537 L89.2149581,362.203656 L89.2149581,362.203656 L89.4502762,359.591283 L89.4502762,359.591283 L89.6185231,357.79665 L89.6185231,357.79665 L89.8879453,355.025125 L89.8879453,355.025125 L90.1778301,352.158108 L90.1778301,352.158108 L90.2790055,351.181215 C91.1998158,342.341436 92.3047882,333.225414 93.5939227,323.833149 C94.8830571,314.440884 96.2642726,305.324862 97.7375691,296.485083 L98.0649683,294.541908 L98.0649683,294.541908 L98.3923675,292.641173 L98.3923675,292.641173 L98.7197667,290.78288 L98.7197667,290.78288 L99.2108656,288.075015 L99.2108656,288.075015 L99.7019644,285.462642 L99.7019644,285.462642 L100.029364,283.774111 L100.029364,283.774111 L100.356763,282.128021 L100.356763,282.128021 L100.684162,280.524371 C100.738729,280.260633 100.793295,279.998663 100.847862,279.738461 L101.175261,278.198472 C101.229827,277.945344 101.284394,277.693984 101.338961,277.444393 L101.66636,275.968065 L101.66636,275.968065 L101.993759,274.534178 C102.048325,274.298733 102.102892,274.065057 102.157459,273.833149 L116.522099,273.833149 L139.174033,355.048619 C143.593923,359.468508 149.302947,363.243831 156.301105,366.374586 C160.836948,368.403779 166.842741,369.775363 174.318483,370.489338 L175.614438,370.605292 C178.235148,370.824316 181.028651,370.966038 183.994949,371.030456 L185.492497,371.056224 C186.248471,371.065887 187.015245,371.070718 187.792818,371.070718 C199.57919,371.070718 210.628913,369.505341 220.941989,366.374586 C231.255064,363.243831 240.186924,358.639779 247.737569,352.562431 C255.288214,346.485083 261.273481,339.1186 265.69337,330.462983 C270.11326,321.807366 272.323204,311.954696 272.323204,300.904972 C272.323204,286.172007 267.811234,273.833149 258.787293,263.888398 C249.763352,253.943646 238.529466,245.103867 225.085635,237.369061 C213.027071,230.431257 200.005435,223.641618 186.020727,216.999625 L291.967536,216.999625 C298.822377,223.711643 304.889368,231.053941 310.168508,239.026519 Z M204.91989,-0.2 C227.387661,-0.2 247.921731,1.54953959 266.522099,5.04861878 L268.535523,5.43362404 C268.868476,5.4983395 269.20012,5.56332892 269.530455,5.6285923 L271.496758,6.02346012 L271.496758,6.02346012 L273.431647,6.42490297 L273.431647,6.42490297 L275.335122,6.83292087 L275.335122,6.83292087 L277.207182,7.24751381 L277.207182,7.24751381 L279.047829,7.6686818 C283.306021,8.65907797 287.307665,9.70317033 291.05276,10.8009589 L292.642094,11.2747272 L292.642094,11.2747272 L294.200014,11.7550705 C300.368864,13.6895941 305.783777,15.7819186 310.444751,18.0320442 C310.444751,24.2935543 309.984346,31.5679558 309.063536,39.8552486 C308.142726,48.1425414 307.037753,56.7060773 305.748619,65.5458564 C304.459484,74.3856354 303.078269,82.9491713 301.604972,91.2364641 L301.220634,93.3753898 L301.220634,93.3753898 L300.836296,95.4683621 C300.77224,95.8133613 300.708183,96.1564458 300.644127,96.4976156 L300.259789,98.5216577 L300.259789,98.5216577 L299.87545,100.499746 L299.87545,100.499746 L299.491112,102.431881 L299.491112,102.431881 L299.106774,104.318063 L299.106774,104.318063 L298.722436,106.158291 L298.722436,106.158291 L298.338098,107.952566 L298.338098,107.952566 L297.953759,109.700887 L297.953759,109.700887 L297.569421,111.403254 L297.569421,111.403254 L297.185083,113.059669 L297.185083,113.059669 L282.820442,113.059669 L260.720994,37.3690608 C254.09116,34.4224678 245.711786,32.212523 235.582873,30.7392265 C225.453959,29.26593 214.680479,28.5292818 203.262431,28.5292818 C184.477901,28.5292818 169.376611,33.7779006 157.958564,44.2751381 C146.540516,54.7723757 140.831492,69.4132597 140.831492,88.1977901 C140.831492,103.299079 145.343462,116.006262 154.367403,126.319337 C163.391344,136.632413 174.717311,145.840516 188.345304,153.943646 C201.380775,161.694467 215.342975,169.192544 230.231903,176.437876 L232.267956,177.424309 C235.334716,178.90357 238.3626,180.428776 241.351608,182.000994 L129.264316,182.000994 C119.291117,173.285464 110.715903,163.288448 103.538674,152.009945 C94.514733,137.829466 90.0027624,120.057827 90.0027624,98.6950276 C90.0027624,83.2254144 92.7651934,69.4132597 98.2900552,57.2585635 C103.814917,45.1038674 111.641805,34.7907919 121.770718,26.319337 C131.899632,17.8478821 143.962247,11.3101289 157.958564,6.70607735 C171.95488,2.10202578 187.608656,-0.2 204.91989,-0.2 Z" id="Shape" fill="#000000" fill-rule="nonzero"></path>
    </g>
</svg>